<svg id="visual" viewBox="0 0 900 450" width="900" height="450" xmlns="http://www.w3.org/2000/svg" xmlns:xlink="http://www.w3.org/1999/xlink" version="1.1"><rect x="0" y="0" width="900" height="0" fill="#001220"></rect><path d="M0 289L21.5 285.7C43 282.3 86 275.7 128.8 276.3C171.7 277 214.3 285 257.2 284.5C300 284 343 275 385.8 280.8C428.7 286.7 471.3 307.3 514.2 311.8C557 316.3 600 304.7 642.8 294C685.7 283.3 728.3 273.7 771.2 272C814 270.3 857 276.7 878.5 279.8L900 283L900 451L878.5 451C857 451 814 451 771.2 451C728.3 451 685.7 451 642.8 451C600 451 557 451 514.2 451C471.3 451 428.7 451 385.8 451C343 451 300 451 257.2 451C214.3 451 171.7 451 128.8 451C86 451 43 451 21.5 451L0 451Z" fill="#ff0066"></path><path d="M0 330L21.5 328.8C43 327.7 86 325.3 128.8 329.5C171.7 333.7 214.3 344.3 257.2 346.2C300 348 343 341 385.8 338.8C428.7 336.7 471.3 339.3 514.2 336.8C557 334.3 600 326.7 642.8 319.7C685.7 312.7 728.3 306.3 771.2 305.7C814 305 857 310 878.5 312.5L900 315L900 451L878.5 451C857 451 814 451 771.2 451C728.3 451 685.7 451 642.8 451C600 451 557 451 514.2 451C471.3 451 428.7 451 385.8 451C343 451 300 451 257.2 451C214.3 451 171.7 451 128.8 451C86 451 43 451 21.5 451L0 451Z" fill="#f10e68"></path><path d="M0 344L21.5 342.2C43 340.3 86 336.7 128.8 334.7C171.7 332.7 214.3 332.3 257.2 340.7C300 349 343 366 385.8 372.8C428.7 379.7 471.3 376.3 514.2 375C557 373.7 600 374.3 642.8 370.8C685.7 367.3 728.3 359.7 771.2 356.3C814 353 857 354 878.5 354.5L900 355L900 451L878.5 451C857 451 814 451 771.2 451C728.3 451 685.7 451 642.8 451C600 451 557 451 514.2 451C471.3 451 428.7 451 385.8 451C343 451 300 451 257.2 451C214.3 451 171.7 451 128.8 451C86 451 43 451 21.5 451L0 451Z" fill="#e31769"></path><path d="M0 399L21.5 394.8C43 390.7 86 382.3 128.8 383.3C171.7 384.3 214.3 394.7 257.2 397C300 399.3 343 393.7 385.8 387.2C428.7 380.7 471.3 373.3 514.2 369.2C557 365 600 364 642.8 370.5C685.7 377 728.3 391 771.2 398C814 405 857 405 878.5 405L900 405L900 451L878.5 451C857 451 814 451 771.2 451C728.3 451 685.7 451 642.8 451C600 451 557 451 514.2 451C471.3 451 428.7 451 385.8 451C343 451 300 451 257.2 451C214.3 451 171.7 451 128.8 451C86 451 43 451 21.5 451L0 451Z" fill="#d51e69"></path><path d="M0 425L21.5 423.5C43 422 86 419 128.8 417.3C171.7 415.7 214.3 415.3 257.2 413.2C300 411 343 407 385.8 408.5C428.7 410 471.3 417 514.2 420.8C557 424.7 600 425.3 642.8 425.7C685.7 426 728.3 426 771.2 420.5C814 415 857 404 878.5 398.5L900 393L900 451L878.5 451C857 451 814 451 771.2 451C728.3 451 685.7 451 642.8 451C600 451 557 451 514.2 451C471.3 451 428.7 451 385.8 451C343 451 300 451 257.2 451C214.3 451 171.7 451 128.8 451C86 451 43 451 21.5 451L0 451Z" fill="#c62368"></path></svg>